<svg width="50" height="68" viewBox="0 0 50 68" fill="none" xmlns="http://www.w3.org/2000/svg">
<path opacity="0.25" d="M46.2963 37.699C47.7674 36.044 48.9168 34.251 49.5145 32.366C51.9051 24.7802 45.2388 18.6656 34.5268 18.6196C23.8147 18.5737 13.2406 24.7802 10.804 32.32C10.2063 34.205 10.1603 35.998 10.6201 37.6531C10.6201 37.699 18.9414 67.4905 18.9414 67.4905L46.2963 37.699C46.2503 37.699 46.2503 37.699 46.2963 37.699Z" fill="black"/>
<path d="M36.4118 26.2974C37.3772 24.0447 37.883 21.562 37.883 18.9415C37.883 8.4593 29.4237 0 18.9415 0C8.4593 0 0 8.4593 0 18.9415C0 21.562 0.50572 24.0447 1.47118 26.2974C1.47118 26.3434 18.9415 67.4905 18.9415 67.4905L36.4118 26.2974Z" fill="#7AFF58"/>
<path d="M4.78125 21.8378L7.12595 21.5619C7.2179 22.1596 7.4018 22.6193 7.72362 22.9412C8.04544 23.263 8.45921 23.4009 8.91895 23.4009C9.42467 23.4009 9.83844 23.217 10.2062 22.8492C10.574 22.4814 10.712 21.9757 10.712 21.2861C10.712 20.6884 10.5281 20.1827 10.2062 19.8149C9.88441 19.4471 9.47065 19.2632 9.0109 19.2632C8.68908 19.2632 8.32128 19.3092 7.90751 19.4471L8.18336 17.4702C8.827 17.4702 9.33272 17.3323 9.70052 17.0564C10.0683 16.7806 10.2062 16.3668 10.2062 15.8611C10.2062 15.4473 10.0683 15.0795 9.83844 14.8497C9.60857 14.6198 9.24077 14.4819 8.827 14.4819C8.41323 14.4819 8.04544 14.6198 7.76959 14.8956C7.49374 15.1715 7.30984 15.5852 7.2179 16.1829L4.96515 15.8151C5.10307 15.0336 5.37892 14.4359 5.65477 13.9761C5.97659 13.5164 6.39035 13.1486 6.98802 12.8728C7.53972 12.5969 8.18336 12.459 8.87298 12.459C10.0683 12.459 11.0338 12.8268 11.7694 13.6083C12.367 14.252 12.6429 14.9416 12.6429 15.7232C12.6429 16.8266 12.0452 17.746 10.8039 18.3897C11.5395 18.5276 12.0912 18.8954 12.5509 19.4471C12.9647 19.9988 13.1946 20.6424 13.1946 21.424C13.1946 22.5274 12.7808 23.4929 11.9533 24.2744C11.1257 25.056 10.1143 25.4698 8.91895 25.4698C7.76959 25.4698 6.80412 25.1479 6.06853 24.4583C5.33294 23.7687 4.8732 22.8952 4.78125 21.8378Z" fill="#323232"/>
<path d="M18.8494 12.459C20.0907 12.459 21.0561 12.9187 21.7458 13.7922C22.5733 14.8497 22.9871 16.5507 22.9871 18.9414C22.9871 21.3321 22.5733 23.0791 21.7458 24.1365C21.0561 25.01 20.0907 25.4238 18.8494 25.4238C17.6081 25.4238 16.5966 24.964 15.861 23.9986C15.1254 23.0331 14.7117 21.378 14.7117 18.9414C14.7117 16.5507 15.1254 14.8497 15.953 13.7922C16.6426 12.8728 17.6081 12.459 18.8494 12.459ZM18.8494 14.4819C18.5735 14.4819 18.2977 14.5738 18.0678 14.7577C17.8379 14.9416 17.654 15.2634 17.5161 15.7691C17.3322 16.4128 17.2403 17.4702 17.2403 18.9414C17.2403 20.4126 17.3322 21.47 17.4701 22.0217C17.6081 22.5734 17.792 22.9412 18.0218 23.1251C18.2517 23.309 18.5276 23.4009 18.8034 23.4009C19.0792 23.4009 19.3551 23.309 19.585 23.1251C19.8148 22.9412 19.9987 22.6193 20.1367 22.1136C20.3206 21.47 20.3665 20.4126 20.3665 18.9414C20.3665 17.4702 20.2746 16.4128 20.1367 15.8611C19.9987 15.3094 19.8148 14.9416 19.585 14.7577C19.4011 14.5738 19.1252 14.4819 18.8494 14.4819Z" fill="#323232"/>
<path d="M24.6423 21.9297L27.079 21.6998C27.1709 22.2515 27.3548 22.6653 27.6766 22.9871C27.9985 23.3089 28.4122 23.4468 28.872 23.4468C29.3777 23.4468 29.7915 23.2629 30.1593 22.8492C30.5271 22.4354 30.665 21.7917 30.665 20.9642C30.665 20.1826 30.4811 19.585 30.1593 19.2172C29.7915 18.8494 29.3777 18.6195 28.78 18.6195C28.0904 18.6195 27.4468 18.9413 26.8951 19.539L24.9182 19.2631L26.1595 12.6428H32.5959V14.9415H27.9985L27.6307 17.1023C28.1824 16.8265 28.7341 16.6886 29.2858 16.6886C30.3432 16.6886 31.2627 17.1023 32.0442 17.8839C32.7798 18.6655 33.1476 19.6769 33.1476 20.9642C33.1476 22.0216 32.8258 22.9411 32.2281 23.7686C31.4006 24.872 30.2512 25.4697 28.78 25.4697C27.6307 25.4697 26.6652 25.1479 25.9296 24.5042C25.194 23.8606 24.7803 22.9871 24.6423 21.9297Z" fill="#323232"/>
</svg>
