<?xml version="1.0" encoding="utf-8"?>
<!-- Generator: Adobe Illustrator 24.2.0, SVG Export Plug-In . SVG Version: 6.00 Build 0)  -->
<svg version="1.1" id="Straight_letters" xmlns="http://www.w3.org/2000/svg" xmlns:xlink="http://www.w3.org/1999/xlink" x="0px"
	 y="0px" width="1080px" height="1080px" viewBox="0 0 1080 1080" style="enable-background:new 0 0 1080 1080;"
	 xml:space="preserve">
<style type="text/css">
	.st0{fill:#FF33BD;}
</style>
<g>
	<path d="M562,657.9l-4.8-0.2l-2.6,58.6l4.8,0.2c2.7,0.1,4.9-2,5-4.7l2.2-48.8C566.7,660.3,564.6,658,562,657.9"/>
	<path d="M580.6,710.9c-0.5,11.7-10.3,20.8-21.9,20.3l-4.8-0.2l-2.5,57l-16.1-0.7l6.4-145l20.9,0.9c11.6,0.5,20.5,10.4,20,22.1
		L580.6,710.9z M514.7,791.4l-16.1-0.8l7.1-144.9l16.1,0.8L514.7,791.4z M475.2,789.9l-16.1-0.2l2-130.6l-9.7-0.1l0.2-14.7l35.5,0.5
		l-0.2,14.7l-9.7-0.1L475.2,789.9z M644.2,598.6l-14.9-28.7l-15,2.9c-3,0.6-6,0.9-9.1,0.9l-78,0.6c-1.4,0-2.8,0-4.3-0.1l-77.8-6.1
		c-3-0.2-6-0.8-9-1.5l-24.5-6.6c-0.6,0.8-1.3,1.6-2,2.3l-8.3,8.6c-4.8,5-7.5,11.6-7.8,18.5l-8,229c-0.2,6.2,1.6,12.3,5.2,17.4
		l21.9,30.8c4.7,6.6,11.9,10.8,19.9,11.5l74.5,7.1c1.1,0.1,2.2,0.1,3.3,0.1l75.3-2c7.2-0.2,14-3.2,19-8.3l27-27.7
		c4.9-5,7.7-11.7,8-18.7l7.5-216.1C647.6,607.8,646.5,602.9,644.2,598.6"/>
	<path d="M572.4,501.6l-91.7-3.2l0.3-8.6l91.6,3.2L572.4,501.6z M634.1,533.6l-5.7-3.2c0.1-0.9,0.2-1.8,0.3-2.8l1-29.8l-0.1,0
		c1-4.8-1.9-10.1-8.2-12.1l-14.5-4.5c-1-0.3-2.1-0.5-3.2-0.6l-78.1-6.2c-0.4,0-0.9-0.1-1.3,0l-78.3,0.8c-1.1,0-2.2,0.1-3.2,0.4
		L428,479c-6.4,1.5-9.7,6.6-9.1,11.5l-0.1,0l-1,29.8c0,0.9,0,1.9,0.1,2.8l-5.9,2.8c-4.1,1.9-6.7,5.9-6.9,10.2
		c-0.1,2.4,0.6,4.8,2,6.9l1.6,2.3c1.7,2.4,4.2,4.2,7.1,5l35.4,9.5c0.8,0.2,1.6,0.3,2.4,0.4l67.7,5.3c0.4,0,0.8,0,1.1,0l67.9-0.6
		c0.8,0,1.6-0.1,2.4-0.2l35.9-7c3-0.6,5.6-2.2,7.5-4.5l1.7-2.2c1.5-1.9,2.4-4.3,2.5-6.7C640.4,539.9,638.1,535.8,634.1,533.6"/>
	<path class="st0" d="M527,498.7c-1.8,0-3.4-0.9-4.4-2.5c-2.2-3.5-4.9-8.1-8.2-13.4c-16.4-27.3-50.6-84-64.4-92.2
		c-2.1-1.3-3-3.8-2.3-6.1c-3.7-0.6-7.3-1.1-10.9-1.6c-2.8-0.4-4.8-3-4.4-5.8c0.4-2.8,3-4.8,5.8-4.4c7.3,1,14.8,2.3,22.1,3.5
		c14.5,2.4,29.5,4.8,43.9,5.9c0.7-13-1.3-39.7-3.4-67.7c-3.3-44.7-7.1-95.4-2.2-115.8c0.5-2.3,2.6-3.9,4.9-4
		c20.3-0.5,44.4,3.9,65.6,7.7c4.8,0.9,9.3,1.7,13.6,2.4c2.6,0.4,4.4,2.7,4.3,5.3c-1.1,24.1-8.6,69.3-15.2,109.2
		c-4.7,28.6-10.1,60.9-9.7,67.4c7.6,8.9,47.2,11.4,64.3,12.5c3.5,0.2,6.5,0.4,9,0.6c2.1,0.2,4,1.6,4.6,3.7s-0.2,4.3-1.9,5.6
		c-5.5,4.1-12.5,9.1-20.6,15c-16.8,12.1-37.7,27.1-54.8,40.6c-25.8,20.6-30.2,28-30.8,30.3c-0.6,2-2.3,3.4-4.3,3.7
		C527.5,498.7,527.2,498.7,527,498.7z M461.6,386.8c15.6,15.2,39.8,54.3,61.7,90.7c1.3,2.2,2.6,4.3,3.7,6.2
		c12.6-15.7,45.9-40.3,84.5-68c3.2-2.3,6.2-4.4,9-6.5c-31.5-2.1-59.6-5.4-67.5-17.4c-2.4-3.7-2-10,8.6-74.1
		c6.1-37.2,13.1-79.1,14.8-103.5c-2.9-0.5-6-1.1-9.1-1.6c-19.3-3.5-41-7.4-59.4-7.6c-3.3,21.1,0.2,67.5,3.2,108.7
		c2.5,34,4.7,63.3,2.9,74.7c-0.4,2.6-2.7,4.5-5.4,4.3C493.1,391.8,477.1,389.3,461.6,386.8z"/>
</g>
</svg>
