<svg width="222" height="186" viewBox="0 0 222 186" fill="none" xmlns="http://www.w3.org/2000/svg">
<path d="M82.0769 90.5387C85.2329 93.4853 87.2075 97.68 87.2075 102.325V133.345C87.2075 142.255 79.9622 149.5 71.0542 149.5C62.1475 149.5 54.9009 142.255 54.9009 133.345V120.956H67.3222V134.592C67.3222 136.649 68.9955 138.323 71.0542 138.323C73.1115 138.323 74.7875 136.649 74.7875 134.592V99.8427C74.7875 97.792 73.1115 96.1227 71.0542 96.1227H66.1049V84.956H71.0542C73.1115 84.956 74.7875 83.2827 74.7875 81.224V51.4413C74.7875 49.3827 73.1115 47.708 71.0542 47.708C68.9955 47.708 67.3222 49.3827 67.3222 51.4413V65.096H54.9009V52.6867C54.9009 43.78 62.1475 36.5333 71.0542 36.5333C79.9622 36.5333 87.2075 43.78 87.2075 52.6867V78.7413C87.2075 83.3907 85.2329 87.588 82.0769 90.5387Z" fill="#ED6FA7"/>
<path d="M112.696 149.503C103.788 149.503 96.541 142.255 96.541 133.347V52.6776C96.541 43.7696 103.788 36.5229 112.696 36.5229C121.601 36.5229 128.848 43.7696 128.848 52.6776V133.35C128.848 142.255 121.601 149.503 112.696 149.503ZM112.696 47.7109C110.636 47.7109 108.962 49.3856 108.962 51.4443V134.594C108.962 136.651 110.636 138.327 112.696 138.327C114.753 138.327 116.428 136.651 116.428 134.594V51.4443C116.428 49.3856 114.753 47.7109 112.696 47.7109" fill="#ED6FA7"/>
<path d="M150.945 149.505C142.037 149.505 134.792 142.259 134.792 133.352V120.956H147.212V134.597C147.212 136.655 148.888 138.329 150.945 138.329C153.003 138.329 154.679 136.655 154.679 134.597V96.1427C154.679 94.1894 153.169 92.5814 151.257 92.4227H138.516V37.7814H165.855V48.956H150.936V81.2307H150.945C159.853 81.2307 167.099 88.4774 167.099 97.3827V133.352C167.099 142.259 159.853 149.505 150.945 149.505Z" fill="#ED6FA7"/>
<path d="M63.6239 82.1058L65.1653 82.7672C65.4933 82.9072 65.8346 82.9578 66.1666 82.9285C66.9053 82.8632 67.5853 82.4058 67.8973 81.6752C68.3506 80.6192 67.8626 79.3965 66.8066 78.9418L65.2639 78.2805C64.2079 77.8285 62.9853 78.3178 62.5319 79.3738C62.0786 80.4285 62.5679 81.6525 63.6239 82.1058Z" fill="white"/>
<path d="M190.347 93.9756L183.392 98.9596L183.375 98.9702C183.367 98.9622 183.357 98.9516 183.349 98.9436C183.355 98.9369 183.36 98.9316 183.367 98.9249C185.455 96.6702 188.191 93.9969 191.652 91.1316C191.757 92.0862 191.456 93.1822 190.347 93.9756ZM165.315 96.2516L158.464 101.38C158.464 101.38 158.456 101.385 158.445 101.39C158.437 101.381 158.429 101.372 158.421 101.361C158.427 101.356 158.431 101.35 158.437 101.342C160.479 99.0476 163.157 96.3169 166.56 93.3796C166.685 94.3342 166.407 95.4342 165.315 96.2516V96.2516ZM141.332 78.7049C141.433 78.6649 141.632 78.5982 141.803 78.5836C141.905 78.5742 141.999 78.5836 142.06 78.6289C142.26 78.7702 142.493 78.9769 142.491 79.1596C142.48 79.6396 141.741 80.8209 139.757 82.1209L135.872 84.4449C137.547 81.5942 139.723 79.3156 141.332 78.7049V78.7049ZM34.9412 112.913C34.2359 112.408 33.4492 111.897 32.5786 111.38C33.4319 110.825 34.4612 110.16 35.6279 109.406C35.3839 110.625 35.1546 111.797 34.9412 112.913ZM221.565 70.1142C221.104 69.0556 219.872 68.5702 218.819 69.0302C208.659 73.4462 199.457 79.4662 192.28 85.1836C190.997 84.4196 189.472 84.0382 187.84 84.2169L182.481 84.7156C181.185 84.8289 180.74 83.8209 180.635 83.5102C180.529 83.1982 180.269 82.1262 181.376 81.4236L189.971 75.9102C189.993 75.8956 190.02 75.8796 190.071 75.9049C190.121 75.9289 190.124 75.9609 190.127 75.9876C190.227 77.1316 191.236 77.9782 192.381 77.8782C193.525 77.7782 194.372 76.7689 194.271 75.6249C194.141 74.1289 193.259 72.8382 191.913 72.1729C190.567 71.5076 189.007 71.5929 187.731 72.4022L180.141 77.2716L178.729 78.1716C174.017 81.3369 170 84.4996 166.913 87.2769C165.691 86.6222 164.264 86.3236 162.756 86.4649L157.397 86.9649C156.1 87.0782 155.655 86.0702 155.551 85.7582C155.461 85.4956 155.272 84.6942 155.876 84.0262L157.429 82.9542C157.469 82.9302 157.501 82.8982 157.541 82.8716L164.887 78.1582C164.911 78.1449 164.935 78.1289 164.985 78.1529C165.037 78.1782 165.041 78.2089 165.043 78.2356C165.143 79.3809 166.152 80.2276 167.297 80.1262C168.441 80.0276 169.287 79.0169 169.188 77.8729C169.056 76.3769 168.175 75.0862 166.828 74.4209C165.483 73.7569 163.923 73.8409 162.648 74.6516L154.053 80.1649C153.729 80.3702 153.432 80.6036 153.161 80.8542L136.892 92.0929C136.871 92.1076 136.848 92.1196 136.828 92.1342C135.733 92.8422 134.771 92.2849 134.503 92.0996C134.288 91.9489 133.708 91.4729 133.603 90.6476L141.928 85.6702C141.951 85.6569 141.973 85.6422 141.993 85.6276C144.948 83.7062 146.6 81.4422 146.651 79.2542C146.685 77.6982 145.917 76.2742 144.487 75.2476C143.199 74.3209 141.555 74.1662 139.853 74.8142C135.923 76.3089 131.385 82.3822 129.807 88.1156L120.416 94.8422C120.399 94.1276 120.444 93.2849 120.487 92.4622C120.641 89.6156 120.8 86.6729 118.951 84.8849C118.289 84.2449 117.087 83.5182 115.112 83.6916C112.468 83.9222 109.135 87.3356 103.195 94.4062C103.991 91.5182 105.091 88.3116 105.633 86.8262C105.636 86.8182 105.636 86.8102 105.639 86.8036C105.664 86.7316 105.677 86.6596 105.695 86.5862C105.709 86.5236 105.731 86.4596 105.739 86.3969C105.743 86.3689 105.74 86.3396 105.743 86.3116C105.808 85.6422 105.545 84.9849 105.045 84.5476C105.041 84.5436 105.036 84.5409 105.032 84.5369C104.933 84.4529 104.828 84.3769 104.713 84.3116C104.707 84.3062 104.697 84.3036 104.688 84.2996C104.595 84.2462 104.499 84.1956 104.395 84.1569C103.707 83.9049 102.972 84.0422 102.427 84.4542C102.423 84.4569 102.419 84.4582 102.416 84.4609L84.9252 97.9609C84.8359 98.0049 84.7412 98.0049 84.6426 97.9609C84.4839 97.8916 84.4666 97.7649 84.4599 97.7249C84.1092 95.3862 84.3799 90.0129 89.0132 78.7516C95.1212 76.3089 102.688 73.3729 109.835 70.6596C110.909 70.2529 111.449 69.0516 111.041 67.9769C110.633 66.9022 109.429 66.3636 108.357 66.7716C108.273 66.8022 99.8532 69.9982 91.5212 73.2822C91.4706 73.3009 91.4266 73.3196 91.3759 73.3396C91.7039 72.6262 92.0412 71.9009 92.3999 71.1502C92.8932 70.1116 92.4532 68.8702 91.4159 68.3756C90.3772 67.8822 89.1372 68.3222 88.6426 69.3596C87.6159 71.5142 86.6932 73.5649 85.8519 75.5302C73.5852 80.4409 73.5052 80.8662 73.2879 82.1556C73.1639 82.8836 73.4506 83.6609 74.0159 84.1356C74.4572 84.5036 75.0039 84.6609 75.5359 84.6142C76.0639 84.5676 76.5759 84.3209 76.9452 83.8822C77.8252 83.3836 80.2759 82.3142 83.6906 80.9076C82.7746 83.3756 82.0399 85.6556 81.4826 87.7516C81.4159 87.7889 81.3466 87.8209 81.2852 87.8662L64.1146 100.441C63.9986 100.502 63.8919 100.48 63.8226 100.45C63.6732 100.389 63.6492 100.277 63.6426 100.24C63.3359 98.7502 63.2932 95.8329 64.7772 90.3836C65.0692 89.7609 65.0506 89.0089 64.6532 88.3862C64.2852 87.8062 63.6759 87.4756 63.0386 87.4316C63.0226 87.4302 63.0066 87.4276 62.9906 87.4262C62.9306 87.4236 62.8719 87.4289 62.8119 87.4316C62.3292 87.4436 61.8692 87.6129 61.5092 87.9196C60.0559 88.8476 52.8812 93.4302 45.0346 98.4396C43.9586 99.1262 42.8839 99.8129 41.8252 100.492C45.4266 85.0036 50.7119 67.1169 55.9986 63.8756C57.4066 63.0102 57.3106 61.9049 57.1279 61.3236C56.8412 60.4142 55.9719 59.8142 55.0199 59.8716C54.5799 59.8982 54.1306 59.9209 46.1799 64.8396C41.9492 67.4582 35.5039 71.5796 28.8346 76.3449C11.6386 88.6342 2.65724 98.8475 0.883911 105.65C-0.641422 111.504 0.753254 116.272 3.83059 119.546C9.34392 125.414 19.4266 124.228 19.8559 124.176C20.9946 124.034 21.8012 122.998 21.6612 121.857C21.5199 120.72 20.4732 119.892 19.3439 120.048C19.2586 120.056 10.9066 121.016 6.85325 116.686C4.74525 114.436 3.64125 110.866 4.97325 106.421C6.48125 101.396 15.1692 91.3035 30.5959 80.2035C36.6346 75.8582 42.6346 71.9556 47.2919 69.0502C43.1439 77.6142 40.1826 89.5609 38.9466 94.5542C38.1799 97.6422 37.4692 100.733 36.8266 103.69C35.4239 104.59 34.1132 105.434 32.9412 106.188C26.4439 110.381 26.4439 110.381 26.5026 111.652C26.5372 112.396 26.9692 113.066 27.6332 113.408C30.9652 115.114 32.9359 116.482 34.0892 117.549C33.4386 121.268 33.0879 123.752 33.1186 124.196C33.1706 124.968 33.6532 125.672 34.3599 125.985C34.6866 126.129 35.0386 126.182 35.3826 126.153C35.7839 126.117 36.1746 125.968 36.5012 125.708C38.9052 123.793 40.0119 121.696 39.7879 119.473C39.6799 118.39 39.2652 117.338 38.5172 116.29C39.0466 113.438 39.7292 109.996 40.5346 106.256C46.4412 102.47 53.3346 98.0569 59.7146 93.9916C59.2386 96.8436 59.1839 99.2222 59.5679 101.078C59.8626 102.518 60.8519 103.718 62.2132 104.289C62.8999 104.574 63.6319 104.684 64.3492 104.621C65.0706 104.558 65.7759 104.322 66.4026 103.917C66.4359 103.894 66.4679 103.873 66.4999 103.849L80.3226 93.7276C80.1412 95.4662 80.1439 97.0089 80.3439 98.3409C80.5719 99.8502 81.5386 101.126 82.9306 101.754C83.6492 102.078 84.4186 102.205 85.1746 102.138C85.8932 102.076 86.5972 101.838 87.2252 101.432C87.2719 101.401 87.3159 101.372 87.3572 101.338L99.5746 91.9089C98.8706 94.3022 98.2386 96.8356 98.1239 98.5476C98.0412 99.8169 98.7439 100.962 99.9146 101.461C100.373 101.657 100.86 101.728 101.335 101.686C102.059 101.622 102.752 101.294 103.264 100.733C103.976 99.9516 104.904 98.8422 105.981 97.5582C108.313 94.7729 113.773 88.2516 115.475 87.8369C115.913 87.7982 116.057 87.8756 116.057 87.8756C116.544 88.2916 116.396 91.0582 116.332 92.2382C116.256 93.6809 116.173 95.1716 116.384 96.4489C116.581 97.6422 117.364 98.6476 118.476 99.1369C119.603 99.6342 120.889 99.5302 121.967 98.8289L130.055 93.0502C130.513 94.0142 131.205 94.8716 132.123 95.5116C133.367 96.3796 134.8 96.7542 136.212 96.6302C137.193 96.5449 138.164 96.2196 139.052 95.6516L151.58 86.9956C151.591 87.0276 151.597 87.0596 151.608 87.0916C152.505 89.7396 154.977 91.3542 157.771 91.1089L163.143 90.6089C163.239 90.5902 163.332 90.5942 163.425 90.5929C160.059 93.5316 157.384 96.2662 155.327 98.5782C153.869 100.22 153.889 102.58 155.373 104.194C156.295 105.196 157.549 105.66 158.789 105.552C159.544 105.485 160.293 105.208 160.957 104.71L167.809 99.5836C170.497 97.5716 171.453 94.2449 170.247 91.1116C170.131 90.8116 169.995 90.5276 169.848 90.2529C171.768 88.5329 174.061 86.6636 176.661 84.7369C176.673 84.7729 176.681 84.8089 176.693 84.8436C177.591 87.4902 180.061 89.1049 182.856 88.8609L188.225 88.3609C188.323 88.3422 188.417 88.3462 188.509 88.3436C185.144 91.2822 182.468 94.0169 180.412 96.3302C178.953 97.9702 178.973 100.332 180.457 101.945C181.377 102.948 182.635 103.41 183.875 103.302C184.629 103.236 185.376 102.958 186.041 102.461L192.892 97.3356C195.581 95.3236 196.539 91.9969 195.331 88.8636C195.256 88.6689 195.175 88.4782 195.087 88.2942L195.077 88.2836C201.959 82.8236 210.763 77.0849 220.483 72.8609C221.54 72.4009 222.025 71.1702 221.565 70.1142" fill="white"/>
<path d="M201.564 95.3035C200.414 95.3035 199.482 96.2355 199.482 97.3849V181.51H22.5172V98.2035C22.5172 97.0529 21.5865 96.1222 20.4358 96.1222C19.2865 96.1222 18.3545 97.0529 18.3545 98.2035V183.592C18.3545 184.741 19.2865 185.673 20.4358 185.673H201.564C202.713 185.673 203.645 184.741 203.645 183.592V97.3849C203.645 96.2355 202.713 95.3035 201.564 95.3035Z" fill="white"/>
<path d="M201.564 0.354756H20.4358C19.2865 0.354756 18.3545 1.28676 18.3545 2.43609V73.5254C18.3545 74.6747 19.2865 75.6068 20.4358 75.6068C21.5865 75.6068 22.5172 74.6747 22.5172 73.5254V4.51743H199.482V80.1721C199.482 81.3214 200.414 82.2534 201.564 82.2534C202.713 82.2534 203.645 81.3214 203.645 80.1721V2.43609C203.645 1.28676 202.713 0.354756 201.564 0.354756Z" fill="white"/>
</svg>
